<svg width="69" height="73" viewBox="0 0 69 73" fill="none" xmlns="http://www.w3.org/2000/svg">
<path fill-rule="evenodd" clip-rule="evenodd" d="M4 41C5.06087 41 6.07828 40.5786 6.82843 39.8284C7.57857 39.0783 8 38.0609 8 37C8 35.9391 7.57857 34.9217 6.82843 34.1716C6.07828 33.4214 5.06087 33 4 33C2.93913 33 1.92172 33.4214 1.17157 34.1716C0.421427 34.9217 0 35.9391 0 37C0 38.0609 0.421427 39.0783 1.17157 39.8284C1.92172 40.5786 2.93913 41 4 41Z" fill="#954BDE"/>
<path fill-rule="evenodd" clip-rule="evenodd" d="M11 20C12.3261 20 13.5979 19.4732 14.5355 18.5355C15.4732 17.5979 16 16.3261 16 15C16 13.6739 15.4732 12.4021 14.5355 11.4645C13.5979 10.5268 12.3261 10 11 10C9.67392 10 8.40215 10.5268 7.46447 11.4645C6.52678 12.4021 6 13.6739 6 15C6 16.3261 6.52678 17.5979 7.46447 18.5355C8.40215 19.4732 9.67392 20 11 20Z" fill="#954BDE"/>
<path fill-rule="evenodd" clip-rule="evenodd" d="M32.5 11C33.9587 11 35.3576 10.4205 36.3891 9.38909C37.4205 8.35764 38 6.95869 38 5.5C38 4.04131 37.4205 2.64236 36.3891 1.61091C35.3576 0.579463 33.9587 0 32.5 0C31.0413 0 29.6424 0.579463 28.6109 1.61091C27.5795 2.64236 27 4.04131 27 5.5C27 6.95869 27.5795 8.35764 28.6109 9.38909C29.6424 10.4205 31.0413 11 32.5 11Z" fill="#954BDE"/>
<path fill-rule="evenodd" clip-rule="evenodd" d="M55 20C56.5913 20 58.1174 19.3679 59.2426 18.2426C60.3679 17.1174 61 15.5913 61 14C61 12.4087 60.3679 10.8826 59.2426 9.75736C58.1174 8.63214 56.5913 8 55 8C53.4087 8 51.8826 8.63214 50.7574 9.75736C49.6321 10.8826 49 12.4087 49 14C49 15.5913 49.6321 17.1174 50.7574 18.2426C51.8826 19.3679 53.4087 20 55 20Z" fill="#954BDE"/>
<path fill-rule="evenodd" clip-rule="evenodd" d="M62.5 43C64.2239 43 65.8772 42.3152 67.0962 41.0962C68.3152 39.8772 69 38.2239 69 36.5C69 34.7761 68.3152 33.1228 67.0962 31.9038C65.8772 30.6848 64.2239 30 62.5 30C60.7761 30 59.1228 30.6848 57.9038 31.9038C56.6848 33.1228 56 34.7761 56 36.5C56 38.2239 56.6848 39.8772 57.9038 41.0962C59.1228 42.3152 60.7761 43 62.5 43Z" fill="#954BDE"/>
<path fill-rule="evenodd" clip-rule="evenodd" d="M55 63C56.8565 63 58.637 62.2625 59.9497 60.9497C61.2625 59.637 62 57.8565 62 56C62 54.1435 61.2625 52.363 59.9497 51.0503C58.637 49.7375 56.8565 49 55 49C53.1435 49 51.363 49.7375 50.0503 51.0503C48.7375 52.363 48 54.1435 48 56C48 57.8565 48.7375 59.637 50.0503 60.9497C51.363 62.2625 53.1435 63 55 63Z" fill="#954BDE"/>
<path fill-rule="evenodd" clip-rule="evenodd" d="M34.5 73C36.4891 73 38.3968 72.2098 39.8033 70.8033C41.2098 69.3968 42 67.4891 42 65.5C42 63.5109 41.2098 61.6032 39.8033 60.1967C38.3968 58.7902 36.4891 58 34.5 58C32.5109 58 30.6032 58.7902 29.1967 60.1967C27.7902 61.6032 27 63.5109 27 65.5C27 67.4891 27.7902 69.3968 29.1967 70.8033C30.6032 72.2098 32.5109 73 34.5 73Z" fill="#954BDE"/>
</svg>
